<?xml version="1.0" encoding="utf-8"?>
<!-- Generator: Adobe Illustrator 22.0.1, SVG Export Plug-In . SVG Version: 6.00 Build 0)  -->
<svg version="1.1" id="Capa_1" xmlns="http://www.w3.org/2000/svg" xmlns:xlink="http://www.w3.org/1999/xlink" x="0px" y="0px"
	 viewBox="0 0 512 512" style="enable-background:new 0 0 512 512;" xml:space="preserve">
<style type="text/css">
	.st0{fill:#FFFFFF;}
</style>
<g>
	<g>
		<g>
			<path class="st0" d="M364.5,36.4v94.8c0,3.8,3.1,6.9,6.9,6.9c3.8,0,6.9-3.1,6.9-6.9V26.7c0-4.6-4.7-8-9.1-6.6L19.4,20.4
				c-4.5-1.9-9.7,1.5-9.7,6.4v413.9c0,28.3,23,51.3,51.3,51.3h354.8c28.3,0,51.3-23,51.3-51.3v-66.5c0-3.8-3.1-6.9-6.9-6.9h-81.8
				v-46.4c0-3.8-3.1-6.9-6.9-6.9c-3.8,0-6.9,3.1-6.9,6.9v119.8c0,14.7,6.3,28.1,16.3,37.4H61c-20.6,0-37.4-16.8-37.4-37.4V37.3
				 M453.2,440.7c0,20.6-16.8,37.4-37.4,37.4c-20.6,0-37.4-16.8-37.4-37.4v-59.6h74.8L453.2,440.7L453.2,440.7z"/>
		</g>
	</g>
	<g>
		<g>
			<path class="st0" d="M153.9,184.7H57.8c-3.8,0-6.9,3.1-6.9,6.9c0,3.8,3.1,6.9,6.9,6.9h96.1c3.8,0,6.9-3.1,6.9-6.9
				C160.8,187.8,157.7,184.7,153.9,184.7z"/>
		</g>
	</g>
	<g>
		<g>
			<path class="st0" d="M94.8,147.7h-37c-3.8,0-6.9,3.1-6.9,6.9c0,3.8,3.1,6.9,6.9,6.9h37c3.8,0,6.9-3.1,6.9-6.9
				C101.7,150.8,98.6,147.7,94.8,147.7z"/>
		</g>
	</g>
	<g>
		<g>
			<path class="st0" d="M168.7,147.7H117c-3.8,0-6.9,3.1-6.9,6.9c0,3.8,3.1,6.9,6.9,6.9h51.7c3.8,0,6.9-3.1,6.9-6.9
				C175.6,150.8,172.5,147.7,168.7,147.7z"/>
		</g>
	</g>
	<g>
		<g>
			<path class="st0" d="M131.7,110.8H57.8c-3.8,0-6.9,3.1-6.9,6.9s3.1,6.9,6.9,6.9h73.9c3.8,0,6.9-3.1,6.9-6.9
				S135.6,110.8,131.7,110.8z"/>
		</g>
	</g>
	<g>
		<g>
			<path class="st0" d="M168.7,110.8h-14.8c-3.8,0-6.9,3.1-6.9,6.9s3.1,6.9,6.9,6.9h14.8c3.8,0,6.9-3.1,6.9-6.9
				S172.5,110.8,168.7,110.8z"/>
		</g>
	</g>
	<g>
		<g>
			<path class="st0" d="M212.5,394.6l70.9-10.1c1.5-0.2,2.9-0.9,3.9-2l188.2-188.2c8.4-8.4,8.4-22.3,0-30.7l-41.8-41.8
				c-8.5-8.5-22.2-8.5-30.7,0L214.8,309.9c-1,1-1.7,2.5-2,3.9l-10.1,70.9 M217.4,379.9l7.2-50.3l43.1,43.1L217.4,379.9z
				 M282.5,367.8l-21.6-21.6l95.7-95.7c2.7-2.7,2.7-7.1,0-9.8c-2.7-2.7-7.1-2.7-9.8,0l-95.7,95.7l-21.6-21.6l147-147l21.6,21.6
				l-29.5,29.5c-2.7,2.7-2.7,7.1,0,9.8c2.7,2.7,7.1,2.7,9.8,0l29.5-29.5l21.6,21.6L282.5,367.8z M439.2,211l-52.9-52.9l5.9-5.9
				l52.9,52.9L439.2,211z M465.7,184.5l-10.8,10.8L402,142.4l10.8-10.8c3.1-3.1,8-3.1,11.1,0l41.8,41.8
				C468.7,176.4,468.7,181.5,465.7,184.5z"/>
		</g>
	</g>
</g>
</svg>
