<?xml version="1.0" encoding="utf-8"?>
<!-- Generator: Adobe Illustrator 22.0.1, SVG Export Plug-In . SVG Version: 6.00 Build 0)  -->
<svg version="1.1" id="Capa_1" xmlns="http://www.w3.org/2000/svg" xmlns:xlink="http://www.w3.org/1999/xlink" x="0px" y="0px"
	 viewBox="0 0 512 512" style="enable-background:new 0 0 512 512;" xml:space="preserve">
<style type="text/css">
	.st0{fill:#FFFFFF;}
</style>
<g>
	<g>
		<path class="st0" d="M340.2,8.5h-17.1 M374.3,8.5h-17.1 M408.5,8.5h-17.1 M67.1,8.5H41.5c-4.7,0-8.5,3.8-8.5,8.5v401.1
			c0,4.7,3.8,8.5,8.5,8.5h247.9c4.7,0,8.5-3.8,8.6-8.5c0-0.2,0-0.4,0-0.6l-0.1-1c-0.2-2.3-0.4-4.6-0.4-6.9c0-8.4,1-16.9,3-25.1
			c1.9-8.2,4.7-16.1,8.5-23.6c0.4-0.8,0.7-1.5,1.1-2.3c1.1-2.2,2.4-4.3,3.6-6.4c0.4-0.7,0.8-1.3,1.2-2c1.4-2.2,2.8-4.3,4.4-6.3
			c0.3-0.4,0.6-0.9,1-1.3c1.7-2.2,3.5-4.4,5.3-6.5l0.3-0.3c12.2-13.6,27.5-24,44.6-30.4l1.5-0.6c2.3-0.8,4.6-1.5,7-2.2
			c1.1-0.3,2.2-0.6,3.2-0.9c2-0.5,4-1,6-1.3c1.7-0.3,3.5-0.6,5.2-0.8c1.5-0.2,3.1-0.5,4.6-0.6c3.4-0.3,6.9-0.5,10.4-0.5
			c2.3,0,4.6,0.2,6.8,0.3l1.1,0.1c0.1,0,0.1,0,0.2,0c10.8,0.8,21.4,3.2,31.5,7c4.4,1.7,9.3-0.5,11-4.9c0.4-1,0.6-2,0.6-3.1V17.1
			c0-4.7-3.8-8.5-8.5-8.5h-25.6 M101.3,8.5H84.2 M135.4,8.5h-17.1 M169.5,8.5h-17.1 M306.1,8.5H186.6 M298,345.3
			c-0.3,0.5-0.6,0.9-0.9,1.4c-1.2,2.2-2.3,4.4-3.4,6.6c-0.6,1.2-1.2,2.4-1.8,3.7c-0.9,2.1-1.8,4.2-2.6,6.3c-0.1,0.2-0.2,0.4-0.3,0.6
			v-39.7h24.3C307.5,330.7,302.4,337.8,298,345.3z M340.2,301.5c-2.9,1.9-5.8,3.8-8.5,5.9v-0.2H289V256h51.2V301.5z M340.2,238.9
			H289v-51.2h51.2V238.9z M340.2,170.7H289v-51.2h51.2V170.7z M408.5,187.7v51.2h-51.2v-51.2H408.5z M357.3,170.7v-51.2h51.2v51.2
			H357.3z M408.5,281.6c-4,0-7.9,0.2-11.8,0.6c-1.7,0.2-3.3,0.4-5,0.6c-2.1,0.3-4.2,0.6-6.2,1c-2.1,0.4-4.3,0.9-6.5,1.4
			c-1.3,0.3-2.6,0.6-3.9,1c-2.6,0.7-5.1,1.5-7.7,2.3c-0.3,0.1-0.6,0.2-1,0.4c-3.1,1.1-6.2,2.2-9.2,3.5V256h51.2L408.5,281.6
			L408.5,281.6z M442.6,286.3c-5.6-1.6-11.3-2.8-17.1-3.5V110.9c0-4.7-3.8-8.5-8.5-8.5H75.7c-4.7,0-8.5,3.8-8.5,8.5V384
			c0,4.7,3.8,8.5,8.5,8.5h206.1c-0.8,5.7-1.2,11.4-1.3,17.1H50.1V85.3h392.5V286.3z M220.7,307.2V256h51.2v51.2H220.7z M271.9,324.3
			v51.2h-51.2v-51.2H271.9z M220.7,238.9v-51.2h51.2v51.2H220.7z M220.7,170.7v-51.2h51.2v51.2H220.7z M152.5,307.2V256h51.2v51.2
			H152.5z M203.7,324.3v51.2h-51.2v-51.2H203.7z M152.5,238.9v-51.2h51.2v51.2H152.5z M152.5,170.7v-51.2h51.2v51.2H152.5z
			 M84.2,307.2V256h51.2v51.2H84.2z M135.4,324.3v51.2H84.2v-51.2H135.4z M84.2,238.9v-51.2h51.2v51.2H84.2z M84.2,170.7v-51.2h51.2
			v51.2H84.2z M425.5,25.6h17.1v42.7H50.1V25.6h17.1 M391.4,25.6h17.1 M357.3,25.6h17.1 M323.1,25.6h17.1 M186.6,25.6h119.5
			 M152.5,25.6h17.1 M118.3,25.6h17.1 M84.2,25.6h17.1"/>
	</g>
</g>
<g>
	<g>
		<path class="st0" d="M408.5,315.7c-51.8,0-93.9,42-93.9,93.9s42,93.9,93.9,93.9s93.9-42,93.9-93.9
			C502.3,357.8,460.3,315.8,408.5,315.7z M408.5,486.4c-42.4,0-76.8-34.4-76.8-76.8c0-42.4,34.4-76.8,76.8-76.8
			c42.4,0,76.8,34.4,76.8,76.8C485.2,452,450.9,486.4,408.5,486.4z"/>
	</g>
</g>
<g>
	<g>
		<path class="st0" d="M456.9,360.9c-3.3-3.2-8.6-3.2-11.9,0l-36.6,36.6L388.9,378c-3.4-3.3-8.8-3.2-12.1,0.2
			c-3.2,3.3-3.2,8.6,0,11.9l25.6,25.6c3.3,3.3,8.7,3.3,12.1,0l42.7-42.7C460.4,369.6,460.3,364.2,456.9,360.9z"/>
	</g>
</g>
</svg>
