<?xml version="1.0" encoding="utf-8"?>
<!-- Generator: Adobe Illustrator 22.0.1, SVG Export Plug-In . SVG Version: 6.00 Build 0)  -->
<svg version="1.1" id="Layer_1" xmlns="http://www.w3.org/2000/svg" xmlns:xlink="http://www.w3.org/1999/xlink" x="0px" y="0px"
	 viewBox="0 0 1200 242.1" style="enable-background:new 0 0 1200 242.1;" xml:space="preserve">
<style type="text/css">
	.st0{fill:#E4002B;}
	.st1{fill:#333333;}
	.st2{font-family:'Helvetica-Bold';}
	.st3{font-size:107.441px;}
	.st4{font-family:'Helvetica-Light';}
	.st5{font-size:50.7435px;}
	.st6{letter-spacing:2;}
</style>
<g>
	<path class="st0" d="M169.6,87l-37.3-46.5l-35.7,46l-61.3-46v76.6h194V40.5L169.6,87z M132.4,106.1H47V65.4l49.7,38.1l35.7-42.8
		V106.1z"/>
	
		<rect x="29.6" y="24.4" transform="matrix(0.7071 -0.7071 0.7071 0.7071 -10.9914 33.9031)" class="st0" width="11.6" height="11.6"/>
	
		<rect x="126.6" y="24.4" transform="matrix(0.7071 -0.7071 0.7071 0.7071 17.416 102.4919)" class="st0" width="11.6" height="11.6"/>
	
		<rect x="223.6" y="24.4" transform="matrix(0.7071 -0.7071 0.7071 0.7071 45.8235 171.0806)" class="st0" width="11.6" height="11.6"/>
</g>
<g>
	<path class="st0" d="M51.8,183.9c0,3.4,0.5,6.2,1.6,8.5c2,4.1,5.7,6.2,11.1,6.2c3.3,0,6.1-1.1,8.6-3.4c2.4-2.3,3.7-5.5,3.7-9.7
		c0-5.6-2.3-9.3-6.8-11.2c-2.6-1.1-6.6-1.6-12.2-1.6v-12c5.4-0.1,9.2-0.6,11.4-1.6c3.7-1.6,5.6-5,5.6-10c0-3.2-0.9-5.9-2.8-7.9
		s-4.6-3.1-8-3.1c-3.9,0-6.8,1.3-8.7,3.8s-2.7,5.9-2.7,10H36.9c0.2-4.2,0.9-8.2,2.2-12c1.4-3.3,3.5-6.4,6.5-9.2
		c2.2-2,4.8-3.5,7.8-4.6s6.7-1.6,11.1-1.6c8.1,0,14.7,2.1,19.7,6.3c5,4.2,7.5,9.9,7.5,16.9c0,5-1.5,9.2-4.5,12.7
		c-1.9,2.2-3.8,3.6-5.9,4.4c1.5,0,3.7,1.3,6.6,3.9c4.3,4,6.4,9.4,6.4,16.2c0,7.2-2.5,13.5-7.5,19s-12.4,8.2-22.1,8.2
		c-12,0-20.4-3.9-25.1-11.8c-2.5-4.2-3.8-9.7-4.1-16.4L51.8,183.9L51.8,183.9z"/>
	<path class="st0" d="M143.2,146.3c0-1.4-0.5-2.9-1.6-4.5c-1.8-2.7-4.5-4-8.2-4c-5.4,0-9.3,3.1-11.6,9.2c-1.3,3.4-2.1,8.3-2.6,14.9
		c2.1-2.5,4.5-4.3,7.2-5.4c2.7-1.1,5.9-1.7,9.4-1.7c7.6,0,13.8,2.6,18.6,7.7c4.8,5.1,7.3,11.7,7.3,19.7c0,7.9-2.4,15-7.1,21
		s-12.1,9.1-22.1,9.1c-10.7,0-18.6-4.5-23.7-13.4c-4-7-5.9-16.1-5.9-27.1c0-6.5,0.3-11.8,0.8-15.9c1-7.2,2.9-13.3,5.7-18.1
		c2.4-4.1,5.6-7.4,9.5-9.9s8.6-3.8,14.1-3.8c7.9,0,14.2,2,18.9,6.1c4.7,4.1,7.3,9.4,7.9,16.2L143.2,146.3L143.2,146.3z M123.4,194.3
		c2.5,2.9,5.6,4.3,9.4,4.3c3.7,0,6.6-1.4,8.8-4.2s3.2-6.4,3.2-10.9c0-5-1.2-8.8-3.6-11.4c-2.4-2.6-5.4-4-8.9-4
		c-2.9,0-5.4,0.9-7.6,2.6c-3.3,2.5-4.9,6.7-4.9,12.3C119.7,187.7,120.9,191.4,123.4,194.3z"/>
	<path class="st0" d="M185.8,187.3c0.7,3.6,1.9,6.5,3.8,8.4c1.9,2,4.6,3,8.2,3c4.1,0,7.3-1.5,9.5-4.4s3.2-6.6,3.2-11c0-4.3-1-8-3-11
		s-5.2-4.5-9.5-4.5c-2,0-3.8,0.3-5.3,0.8c-2.6,0.9-4.6,2.7-5.9,5.2l-15-0.7l6-47h46.8v14.2h-34.8l-3,18.6c2.6-1.7,4.6-2.8,6-3.3
		c2.4-0.9,5.4-1.4,8.9-1.4c7,0,13.2,2.4,18.4,7.1c5.2,4.7,7.9,11.6,7.9,20.7c0,7.9-2.5,14.9-7.6,21.1c-5.1,6.2-12.6,9.3-22.6,9.3
		c-8.1,0-14.7-2.2-19.9-6.5s-8.1-10.5-8.7-18.5h16.6V187.3z"/>
</g>
<text transform="matrix(1 0 0 1 278.0088 140.5538)" class="st1 st2 st3">GLOBALGAMING</text>
<text transform="matrix(1 0 0 1 278.0068 197.7696)" class="st1 st4 st5 st6">All bets in one place</text>
</svg>
