<?xml version="1.0" encoding="utf-8"?>
<!-- Generator: Adobe Illustrator 22.0.1, SVG Export Plug-In . SVG Version: 6.00 Build 0)  -->
<svg version="1.1" id="Capa_1" xmlns="http://www.w3.org/2000/svg" xmlns:xlink="http://www.w3.org/1999/xlink" x="0px" y="0px"
	 viewBox="0 0 512 512" style="enable-background:new 0 0 512 512;" xml:space="preserve">
<style type="text/css">
	.st0{fill:#FFFFFF;}
</style>
<g>
	<g>
		<path class="st0" d="M503.5,81.1h-93.9V12.8c0-4.7-3.8-8.5-8.5-8.5H110.9c-4.7,0-8.5,3.8-8.5,8.5v119.5H8.5
			c-4.7,0-8.5,3.8-8.5,8.5v349.9c0,4.7,3.8,8.5,8.5,8.5s8.5-3.8,8.5-8.5V149.3h85.3v349.9c0,4.7,3.8,8.5,8.5,8.5h290.1
			c4.7,0,8.5-3.8,8.5-8.5V98.1h85.3v392.5c0,4.7,3.8,8.5,8.5,8.5s8.5-3.8,8.5-8.5V89.6C512,84.9,508.2,81.1,503.5,81.1z
			 M247.5,490.7h-34.1v-76.8h34.1V490.7z M298.7,490.7h-34.1v-76.8h34.1V490.7z M392.5,490.7h-76.8v-85.3c0-4.7-3.8-8.5-8.5-8.5
			H204.8c-4.7,0-8.5,3.8-8.5,8.5v85.3h-76.8V21.3h273.1V490.7z"/>
	</g>
</g>
<g>
	<g>
		<path class="st0" d="M196.3,38.4h-51.2c-4.7,0-8.5,3.8-8.5,8.5v51.2c0,4.7,3.8,8.5,8.5,8.5h51.2c4.7,0,8.5-3.8,8.5-8.5V46.9
			C204.8,42.2,201,38.4,196.3,38.4z M187.7,89.6h-34.1V55.5h34.1V89.6z"/>
	</g>
</g>
<g>
	<g>
		<path class="st0" d="M281.6,38.4h-51.2c-4.7,0-8.5,3.8-8.5,8.5v51.2c0,4.7,3.8,8.5,8.5,8.5h51.2c4.7,0,8.5-3.8,8.5-8.5V46.9
			C290.1,42.2,286.3,38.4,281.6,38.4z M273.1,89.6h-34.1V55.5h34.1V89.6z"/>
	</g>
</g>
<g>
	<g>
		<path class="st0" d="M366.9,38.4h-51.2c-4.7,0-8.5,3.8-8.5,8.5v51.2c0,4.7,3.8,8.5,8.5,8.5h51.2c4.7,0,8.5-3.8,8.5-8.5V46.9
			C375.5,42.2,371.6,38.4,366.9,38.4z M358.4,89.6h-34.1V55.5h34.1V89.6z"/>
	</g>
</g>
<g>
	<g>
		<path class="st0" d="M196.3,123.7h-51.2c-4.7,0-8.5,3.8-8.5,8.5v51.2c0,4.7,3.8,8.5,8.5,8.5h51.2c4.7,0,8.5-3.8,8.5-8.5v-51.2
			C204.8,127.6,201,123.7,196.3,123.7z M187.7,174.9h-34.1v-34.1h34.1V174.9z"/>
	</g>
</g>
<g>
	<g>
		<path class="st0" d="M281.6,123.7h-51.2c-4.7,0-8.5,3.8-8.5,8.5v51.2c0,4.7,3.8,8.5,8.5,8.5h51.2c4.7,0,8.5-3.8,8.5-8.5v-51.2
			C290.1,127.6,286.3,123.7,281.6,123.7z M273.1,174.9h-34.1v-34.1h34.1V174.9z"/>
	</g>
</g>
<g>
	<g>
		<path class="st0" d="M366.9,123.7h-51.2c-4.7,0-8.5,3.8-8.5,8.5v51.2c0,4.7,3.8,8.5,8.5,8.5h51.2c4.7,0,8.5-3.8,8.5-8.5v-51.2
			C375.5,127.6,371.6,123.7,366.9,123.7z M358.4,174.9h-34.1v-34.1h34.1V174.9z"/>
	</g>
</g>
<g>
	<g>
		<path class="st0" d="M196.3,209.1h-51.2c-4.7,0-8.5,3.8-8.5,8.5v51.2c0,4.7,3.8,8.5,8.5,8.5h51.2c4.7,0,8.5-3.8,8.5-8.5v-51.2
			C204.8,212.9,201,209.1,196.3,209.1z M187.7,260.3h-34.1v-34.1h34.1V260.3z"/>
	</g>
</g>
<g>
	<g>
		<path class="st0" d="M281.6,209.1h-51.2c-4.7,0-8.5,3.8-8.5,8.5v51.2c0,4.7,3.8,8.5,8.5,8.5h51.2c4.7,0,8.5-3.8,8.5-8.5v-51.2
			C290.1,212.9,286.3,209.1,281.6,209.1z M273.1,260.3h-34.1v-34.1h34.1V260.3z"/>
	</g>
</g>
<g>
	<g>
		<path class="st0" d="M366.9,209.1h-51.2c-4.7,0-8.5,3.8-8.5,8.5v51.2c0,4.7,3.8,8.5,8.5,8.5h51.2c4.7,0,8.5-3.8,8.5-8.5v-51.2
			C375.5,212.9,371.6,209.1,366.9,209.1z M358.4,260.3h-34.1v-34.1h34.1V260.3z"/>
	</g>
</g>
<g>
	<g>
		<path class="st0" d="M196.3,294.4h-51.2c-4.7,0-8.5,3.8-8.5,8.5v51.2c0,4.7,3.8,8.5,8.5,8.5h51.2c4.7,0,8.5-3.8,8.5-8.5v-51.2
			C204.8,298.2,201,294.4,196.3,294.4z M187.7,345.6h-34.1v-34.1h34.1V345.6z"/>
	</g>
</g>
<g>
	<g>
		<path class="st0" d="M281.6,294.4h-51.2c-4.7,0-8.5,3.8-8.5,8.5v51.2c0,4.7,3.8,8.5,8.5,8.5h51.2c4.7,0,8.5-3.8,8.5-8.5v-51.2
			C290.1,298.2,286.3,294.4,281.6,294.4z M273.1,345.6h-34.1v-34.1h34.1V345.6z"/>
	</g>
</g>
<g>
	<g>
		<path class="st0" d="M366.9,294.4h-51.2c-4.7,0-8.5,3.8-8.5,8.5v51.2c0,4.7,3.8,8.5,8.5,8.5h51.2c4.7,0,8.5-3.8,8.5-8.5v-51.2
			C375.5,298.2,371.6,294.4,366.9,294.4z M358.4,345.6h-34.1v-34.1h34.1V345.6z"/>
	</g>
</g>
</svg>
